<svg preserveAspectRatio="none" overflow="visible" style="display: block;" width="93.6775" height="117.01" viewBox="0 0 93.6775 117.01" fill="none" xmlns="http://www.w3.org/2000/svg">
<g id="Union" filter="url(#filter0_d_0_7)">
<path d="M30.8708 8.9C33.7436 10.1216 38.7971 23.3764 40.3338 26.8147C40.2645 22.4902 40.0263 19.1319 41.6011 14.9986C41.3198 19.1905 41.9213 23.7286 42.4726 27.8895L41.7749 26.1005C41.6122 29.7488 44.5632 34.4855 46.3506 37.6105C47.7786 28.4588 50.3552 20.3308 49.48 10.8835C49.405 10.071 49.9175 9.60082 50.5459 9.19774C55.7175 11.977 51.52 32.8679 50.1513 37.9339C53.875 34.0599 58.3773 31.002 61.9887 27.0649C64.5034 24.3244 66.2248 19.6267 68.9555 17.0828C69.3508 16.713 69.3114 16.884 70.1218 16.9461C71.0167 18.2683 70.7552 17.7566 70.864 19.5078C66.5183 29.0255 60.7888 35.8899 52.0031 41.5248C56.9598 41.2148 62.6247 40.8465 67.4771 39.4361C70.7502 38.4829 75.457 35.8359 78.8883 35.5647C79.9167 35.4839 80.2287 36.0242 80.7774 36.6441C77.9591 40.8665 61.7396 45.2013 56.3432 45.5379C62.6261 49.0807 68.0159 50.3249 74.5624 52.9186C75.6303 53.3414 75.8528 53.6312 76.1001 54.4541C72.8962 55.2747 67.6403 54.1638 64.3078 53.5423C57.5924 51.3956 54.2743 49.3207 48.5133 45.5873C42.538 57.4601 36.009 69.0484 30.4525 81.0913C27.9125 86.5965 20.8125 99.2753 14.2962 100.11C9.7711 98.1193 17.5234 86.7905 19.4898 84.6655C24.411 79.347 27.3162 77.1843 31.1669 70.7319C36.318 62.0308 40.8053 52.9557 44.5902 43.5839C39.6132 41.1223 27.0539 34.9494 24.603 30.2888L25.2396 29.4C24.1498 26.9128 18.6601 24.7689 18.7194 21.54L19.5323 21.1697C23.5683 22.4008 27.2078 28.2358 29.9717 29.547L30.1062 28.306L30.5567 28.064C32.044 29.0088 39.6646 35.893 41.5425 37.5001C37.8031 31.71 30.1374 15.4162 30.8708 8.9Z" fill="white"/>
<path d="M61.7132 14.3832C61.4022 18.1272 57.1112 25.4329 54.1362 28.1853L53.9193 28.0454C53.8569 27.1634 60.264 15.7719 61.2414 13.9565L61.7132 14.3832Z" fill="white"/>
</g>
<defs>
<filter id="filter0_d_0_7" x="-2.62122e-08" y="0" width="93.6774" height="117.01" filterUnits="userSpaceOnUse" color-interpolation-filters="sRGB">
<feFlood flood-opacity="0" result="BackgroundImageFix"/>
<feColorMatrix in="SourceAlpha" type="matrix" values="0 0 0 0 0 0 0 0 0 0 0 0 0 0 0 0 0 0 127 0" result="hardAlpha"/>
<feOffset dy="4"/>
<feGaussianBlur stdDeviation="6.45"/>
<feComposite in2="hardAlpha" operator="out"/>
<feColorMatrix type="matrix" values="0 0 0 0 1 0 0 0 0 0.344231 0 0 0 0 0.578027 0 0 0 0.5 0"/>
<feBlend mode="normal" in2="BackgroundImageFix" result="effect1_dropShadow_0_7"/>
<feBlend mode="normal" in="SourceGraphic" in2="effect1_dropShadow_0_7" result="shape"/>
</filter>
</defs>
</svg>
